<svg width="200" height="49" viewBox="0 0 200 49" fill="none" xmlns="http://www.w3.org/2000/svg">
<g clip-path="url(#clip0_317_217)">
<path d="M1.08 28.68C10.08 30.06 16.32 30.6 23.46 30.6C25.26 30.6 26.22 30 26.22 28.8C26.22 27.78 25.56 27.42 23.4 27.42H20.04C18.42 27.42 14.82 27.18 12.48 26.94C7.44 26.4 4.38 25.02 2.34 22.38C0.78 20.4 0 17.76 0 14.7C0 10.14 1.62 6.48 4.74 4.14C8.28 1.5 15.36 0 24.66 0C31.74 0 39 0.66 45.78 1.98V13.74C42.72 13.2 34.5 12.48 29.64 12.36H25.14C22.38 12.36 21.3 12.9 21.3 14.16C21.3 15.18 22.14 15.78 23.52 15.78L30.72 15.84C34.86 15.9 38.7 16.44 41.04 17.34C44.82 18.78 47.34 22.74 47.34 27.3C47.34 31.86 45 35.76 41.1 38.22C36.9 40.86 32.46 41.7 23.28 41.7C15.18 41.7 9.66 41.22 1.08 39.66V28.68Z" fill="#D2DA4C"/>
<path d="M101.88 7.14L89.3399 33.9C83.4599 46.14 79.8599 49.08 71.1599 48.84H53.2799V38.22H65.6399L49.4399 7.14H69.6599L76.1399 23.82L81.5999 7.14H101.88Z" fill="#D2DA4C"/>
<path d="M134.16 40.86V24.36C134.16 21.06 132.84 19.74 129.48 19.74C125.88 19.74 124.38 21.24 124.38 24.78V40.86H104.94V7.14H124.38V12.24C127.68 7.86 131.52 6.3 138.9 6.3C148.86 6.3 153.6 10.68 153.6 19.92V40.86H134.16Z" fill="#D2DA4C"/>
<g clip-path="url(#clip1_317_217)">
<path d="M198.2 17.46C194.12 16.98 188.42 16.68 183.8 16.68C177.92 16.68 176.84 16.92 176.84 18.06C176.84 18.36 177.02 18.66 177.38 18.84C177.74 19.04 179.32 19.14 182.12 19.14C189.12 19.22 193.34 19.5 194.78 19.98C197.78 21.06 199.76 24.54 199.76 28.8C199.76 33.6 197.54 37.5 193.82 39.18C190.46 40.68 185.48 41.4 178.34 41.4C173.84 41.4 167.12 40.98 160.22 40.2L159.44 30.3C165.92 31.08 170.66 31.44 174.38 31.44C178.1 31.44 181.04 31.32 181.34 31.2C181.7 31.08 181.94 30.66 181.94 30.18C181.94 29.4 181.46 29.1 180.26 29.1H178.82L176.54 29.16C170.54 29.16 165.26 28.44 163.16 27.3C159.8 25.56 158 22.14 158 17.76C158 13.38 159.92 10.02 163.34 8.16C166.1 6.66 171.2 6 179.9 6C185.72 6 193.94 6.36 198.2 6.78V17.46Z" fill="#D2DA4D"/>
</g>
</g>
<defs>
<clipPath id="clip0_317_217">
<rect width="199.86" height="48.85" fill="white"/>
</clipPath>
<clipPath id="clip1_317_217">
<rect width="41.76" height="35.4" fill="white" transform="translate(158 6)"/>
</clipPath>
</defs>
</svg>
